<svg id="Layer_1" data-name="Layer 1" xmlns="http://www.w3.org/2000/svg" viewBox="0 0 132.28 35.33"><defs><style>.cls-1{fill:#4267b2;}</style></defs><title>logo-01</title><path class="cls-1" d="M2.28,11.07V26.33A8.15,8.15,0,0,0,3.82,31.6a5.69,5.69,0,0,0,4.7,1.91,8.51,8.51,0,0,0,4.36-1.19A12.63,12.63,0,0,0,16.51,29V11.07h2.28V35H17.54q-.67,0-.69-.63l-.22-3.55a13.36,13.36,0,0,1-3.83,3.31A9.5,9.5,0,0,1,8,35.33a9,9,0,0,1-3.48-.62A6.54,6.54,0,0,1,2,32.91,8.21,8.21,0,0,1,.5,30.08,13.14,13.14,0,0,1,0,26.33V11.07Z"/><path class="cls-1" d="M33.07,35.33A5.14,5.14,0,0,1,29.3,34,5.69,5.69,0,0,1,28,29.84V13.52H24.53a.61.61,0,0,1-.43-.15.48.48,0,0,1-.17-.41v-.88L28,11.79l.57-8.55a.63.63,0,0,1,.17-.38.57.57,0,0,1,.42-.17h1.07v9.12h7.51v1.71H30.24v16.2a5,5,0,0,0,.25,1.69,3.1,3.1,0,0,0,.7,1.16,2.56,2.56,0,0,0,1,.67,3.66,3.66,0,0,0,1.3.22A4,4,0,0,0,35,33.21a6.79,6.79,0,0,0,1.08-.55,6.72,6.72,0,0,0,.74-.56.84.84,0,0,1,.46-.25.53.53,0,0,1,.38.24l.62,1A6.76,6.76,0,0,1,36,34.72,7.21,7.21,0,0,1,33.07,35.33Z"/><path class="cls-1" d="M52.68,10.68a9.9,9.9,0,0,1,3.73.7,8.36,8.36,0,0,1,3,2,9.35,9.35,0,0,1,2,3.27,12.86,12.86,0,0,1,.71,4.47,1.24,1.24,0,0,1-.15.72.6.6,0,0,1-.49.19H44.18v.46a16,16,0,0,0,.63,4.72,9.55,9.55,0,0,0,1.77,3.42,7.21,7.21,0,0,0,2.79,2.08,9.28,9.28,0,0,0,3.65.7,11.15,11.15,0,0,0,3.12-.4,11.39,11.39,0,0,0,2.21-.89,10.82,10.82,0,0,0,1.43-.89,1.63,1.63,0,0,1,.77-.39.55.55,0,0,1,.48.24l.62.77a6.53,6.53,0,0,1-1.52,1.34A11,11,0,0,1,58,34.29a15.5,15.5,0,0,1-2.5.71,14.13,14.13,0,0,1-2.67.26,11.34,11.34,0,0,1-4.47-.85,9.61,9.61,0,0,1-3.46-2.49,11.44,11.44,0,0,1-2.23-4,17.26,17.26,0,0,1-.79-5.41,14.63,14.63,0,0,1,.74-4.74A10.75,10.75,0,0,1,44.75,14a9.52,9.52,0,0,1,3.38-2.46A11.16,11.16,0,0,1,52.68,10.68Zm0,1.71a9,9,0,0,0-3.3.57,7.28,7.28,0,0,0-2.53,1.66,8.45,8.45,0,0,0-1.73,2.59,11.71,11.71,0,0,0-.87,3.39H60a10.59,10.59,0,0,0-.53-3.45A7.59,7.59,0,0,0,58,14.57,6.58,6.58,0,0,0,55.69,13,7.75,7.75,0,0,0,52.71,12.39Z"/><path class="cls-1" d="M68.21,35V11.07h1.24a.65.65,0,0,1,.72.6l.22,3.6a13.48,13.48,0,0,1,3.8-3.33A9.47,9.47,0,0,1,79,10.68a8.91,8.91,0,0,1,3.47.63A6.2,6.2,0,0,1,85,13.11a8,8,0,0,1,1.49,2.83,12.68,12.68,0,0,1,.5,3.74V35H84.69V19.68a8.18,8.18,0,0,0-1.53-5.26,5.67,5.67,0,0,0-4.71-1.91,8.29,8.29,0,0,0-4.36,1.21A12.66,12.66,0,0,0,70.49,17V35Z"/><path class="cls-1" d="M107.33,14a.56.56,0,0,1-.53.34,1.3,1.3,0,0,1-.69-.3,10.75,10.75,0,0,0-1.1-.67,9,9,0,0,0-1.68-.67,8.55,8.55,0,0,0-2.44-.3,7.08,7.08,0,0,0-2.36.37,5.77,5.77,0,0,0-1.82,1,4.52,4.52,0,0,0-1.18,1.45A3.77,3.77,0,0,0,95.11,17a2.92,2.92,0,0,0,.58,1.87,4.75,4.75,0,0,0,1.51,1.27,11.86,11.86,0,0,0,2.12.91c.79.26,1.6.51,2.44.77s1.64.54,2.43.85a9.24,9.24,0,0,1,2.13,1.16,5.5,5.5,0,0,1,1.51,1.71,4.87,4.87,0,0,1,.58,2.44,7.4,7.4,0,0,1-.57,2.91,6.78,6.78,0,0,1-1.63,2.33,8,8,0,0,1-2.63,1.56,10.29,10.29,0,0,1-3.55.57,10.78,10.78,0,0,1-4.34-.8,12.36,12.36,0,0,1-3.27-2.1l.55-.82a1,1,0,0,1,.27-.29.76.76,0,0,1,.41-.09,1.34,1.34,0,0,1,.76.38,9.46,9.46,0,0,0,3,1.66,8.29,8.29,0,0,0,2.69.38,7.79,7.79,0,0,0,2.67-.42,5.5,5.5,0,0,0,1.92-1.14,4.69,4.69,0,0,0,1.16-1.69,5.28,5.28,0,0,0,.4-2,3.24,3.24,0,0,0-.58-2A4.83,4.83,0,0,0,104.18,25a10,10,0,0,0-2.12-.93c-.79-.26-1.61-.52-2.45-.77s-1.66-.54-2.45-.84A9.14,9.14,0,0,1,95,21.32a5.45,5.45,0,0,1-1.51-1.7A4.82,4.82,0,0,1,93,17.14a5.69,5.69,0,0,1,.55-2.45,6.25,6.25,0,0,1,1.57-2.06,7.73,7.73,0,0,1,2.49-1.42,9.66,9.66,0,0,1,3.29-.53,11.06,11.06,0,0,1,3.87.64,9.44,9.44,0,0,1,3.11,1.93Z"/><path class="cls-1" d="M118.77,2.84a1.84,1.84,0,0,1-.18.8,2.21,2.21,0,0,1-.47.66,2.28,2.28,0,0,1-.67.46,2,2,0,0,1-.81.16,2.07,2.07,0,0,1-.82-.16,2.28,2.28,0,0,1-.67-.46,2.18,2.18,0,0,1-.46-.66,2,2,0,0,1-.17-.8,2.12,2.12,0,0,1,.17-.83,2.19,2.19,0,0,1,.46-.69A2.14,2.14,0,0,1,116.64.7a2,2,0,0,1,.81.17,2.08,2.08,0,0,1,.67.45,2.22,2.22,0,0,1,.47.69A2,2,0,0,1,118.77,2.84Zm-1.15,9V35h-2V11.87c0-.44.22-.8.66-.8H117C117.4,11.07,117.62,11.43,117.62,11.87Z"/><path class="cls-1" d="M128.14,0s.62,5.28.78,7c0,.21.05.63.06.82l0,.86V35h-2V8.73s0-.6,0-.86.05-.58.07-.78C127.32,5.32,128,0,128,0Z"/><ellipse class="cls-1" cx="116.68" cy="5.03" rx="2.49" ry="5.03"/><path class="cls-1" d="M129.85,8a1.18,1.18,0,0,1,.08-.42,14,14,0,0,0,.65-2.5c.19-.82.33-1.67.52-2.52s.31-1.71.47-2.58h.23c.16.87.25,1.75.33,2.64s.14,1.76.15,2.65A9.25,9.25,0,0,1,131.91,8a3.49,3.49,0,0,1-.73,1.28,3.17,3.17,0,0,1-.6.56,1.37,1.37,0,0,1-.68.25c-.07,0-.15,0-.15-.14"/><path class="cls-1" d="M126.35,10c0,.13-.08.15-.15.14a1.37,1.37,0,0,1-.68-.25,3.17,3.17,0,0,1-.6-.56A3.49,3.49,0,0,1,124.19,8a9.25,9.25,0,0,1-.36-2.72c0-.89.07-1.77.14-2.65s.17-1.77.33-2.64h.23c.16.87.28,1.73.47,2.58s.33,1.7.52,2.52a14,14,0,0,0,.65,2.5,1.18,1.18,0,0,1,.08.42"/></svg>